Coordinates
version=1
nRows=7
nColumns=33
inDegrees=yes

Units are S.I. units (second, meters, Newtons, ...)
Angles are in degrees.

endheader
time	ground_thorax_rot_x	ground_thorax_rot_y	ground_thorax_rot_z	ground_thorax_tx	ground_thorax_ty	ground_thorax_tz	clav_prot_r	clav_elev_r	scapula_abduction_r	scapula_elevation_r	scapula_upward_rot_r	scapula_winging_r	shoulder_elv_r	plane_of_elev_r	axial_rot_r	elbow_flexion_r	pro_sup_r	wrist_flex_r	wrist_dev_r	clav_prot_l	clav_elev_l	scapula_abduction_l	scapula_elevation_l	scapula_upward_rot_l	scapula_winging_l	shoulder_elv_l	plane_of_elev_l	axial_rot_l	elbow_flexion_l	pro_sup_l	wrist_flex_l	wrist_dev_l
      7.45000000	    -38.96918060	     -9.20539705	     15.19160266	   -227.41400884	    840.44848237	      3.61331624	      5.96089663	    -45.00000000	     38.12233762	    -45.00000000	    -31.38240772	   2777.94982879	   -467.74496933	    146.40327115	   -119.41605819	   1813.69439227	     29.96271449	     19.34570864	      4.37709914	     15.16427244	     37.53782451	    -38.60186861	    -45.00000000	    -45.00000000	  -3874.58202107	     73.63031340	     23.84950596	    -42.13952458	   1822.73455614	    147.02341485	     -1.35055690	     -9.67433753
      7.46000000	    -38.98207423	     -9.27212563	     15.24146898	   -225.49643297	    839.60931009	      3.63292984	      5.99807429	    -45.00000000	     38.18199726	    -45.00000000	    -31.10382579	   2778.03131951	   -467.88150164	    146.39522796	   -119.42774161	   1813.57191272	     28.45992030	     19.42415587	      4.63468168	     15.15023784	     37.51591719	    -38.67159207	    -45.00000000	    -45.00000000	  -3874.69467786	     73.60673601	     23.94693053	    -41.90855764	   1822.76142089	    147.71648702	     -1.42437783	     -9.65941795
      7.47000000	    -39.00149172	     -9.35961094	     15.32375513	   -223.46514548	    838.69890301	      3.64969088	      5.71453666	    -45.00000000	     38.26780778	    -45.00000000	    -30.64963287	   2778.19446165	   -467.92820965	    146.58488669	   -119.38076600	   1813.53903239	     26.77453506	     19.56173333	      4.98895835	     15.47687845	     37.69508009	    -38.87892731	    -45.00000000	    -45.00000000	  -3874.76613433	     73.49682368	     23.96347112	    -41.68348140	   1822.78457475	    148.48546220	     -1.47049367	     -9.61631154
      7.48000000	    -38.99182569	     -9.45134584	     15.39501310	   -221.32443297	    837.71495820	      3.66332151	      5.60640190	    -45.00000000	     38.32665449	    -45.00000000	    -30.20705647	   2778.31912268	   -468.03704964	    146.65803796	   -119.24836472	   1813.40096539	     25.04903907	     19.63154091	      5.32647570	     15.60511442	     37.74873294	    -39.00440053	    -45.00000000	    -45.00000000	  -3874.91413861	     73.45555445	     24.01311796	    -41.42944771	   1822.80462802	    149.26961944	     -1.54320902	     -9.59168865
      7.49000000	    -39.01067542	     -9.55937489	     15.43423336	   -219.07690320	    836.65380432	      3.67240717	      5.68948428	    -45.00000000	     38.40600453	    -45.00000000	    -29.88267500	   2778.42545707	   -468.22311853	    146.64175240	   -119.19494298	   1813.29150143	     23.49868267	     19.66460924	      5.61230130	     15.55702813	     37.71842352	    -39.07214009	    -45.00000000	    -45.00000000	  -3875.01257620	     73.39717990	     24.15218970	    -41.18849055	   1822.79857690	    149.99375638	     -1.63502694	     -9.59621381
      7.50000000	    -39.02152783	     -9.59930276	     15.53892532	   -216.72551940	    835.50811993	      3.67453381	      5.69681803	    -45.00000000	     38.50091890	    -45.00000000	    -29.57412669	   2778.52465898	   -468.40993979	    146.72230443	   -119.10326101	   1813.15033738	     22.03736716	     19.68680430	      5.94313497	     15.57005652	     37.72120868	    -39.26005887	    -45.00000000	    -45.00000000	  -3875.12838010	     73.29072561	     24.28069790	    -41.05891852	   1822.78205928	    150.69624126	     -1.67677038	     -9.57875648
      7.51000000	    -38.93613516	     -9.91134215	     15.84120296	   -214.27247099	    834.27659531	      3.66969424	      6.23293865	    -45.00000000	     38.55007081	    -45.00000000	    -29.36078381	   2778.49786606	   -468.66765647	    146.59147588	   -119.04988079	   1812.85386164	     20.88490726	     19.57737596	      6.12469670	     14.70019982	     37.48829874	    -39.11870331	    -45.00000000	    -45.00000000	  -3875.68029783	     73.60116352	     24.03652876	    -40.99525357	   1822.73634294	    151.27395998	     -1.89062781	     -9.65809203
